<?xml version="1.0" encoding="utf-8"?>
<!-- Generator: Adobe Illustrator 27.5.0, SVG Export Plug-In . SVG Version: 6.00 Build 0)  -->
<svg version="1.1" id="Layer_1" xmlns="http://www.w3.org/2000/svg" xmlns:xlink="http://www.w3.org/1999/xlink" 
	 width="32px" height="32px" viewBox="0 0 512 512" style="enable-background:new 0 0 512 512;" xml:space="preserve">
<style type="text/css">
	.st0{fill-rule:evenodd;clip-rule:evenodd;}
</style>
<g>
	<path class="st0" d="M310.86,36.57c-10.1,0-18.29-8.19-18.29-18.29S300.77,0,310.86,0h182.85C503.81,0,512,8.19,512,18.29v182.85
		c0,10.1-8.19,18.29-18.29,18.29s-18.29-8.19-18.29-18.29V62.43l-151,151c63.91,78.19,52.33,193.38-25.86,257.29
		s-193.38,52.33-257.29-25.86s-52.33-193.38,25.86-257.29c67.33-55.03,164.11-55.03,231.44,0l151-151H310.86z M182.87,182.85
		c-80.79,0-146.28,65.49-146.28,146.28s65.49,146.28,146.28,146.28s146.28-65.49,146.28-146.28S263.66,182.85,182.87,182.85z"/>
</g>
</svg>
