<svg width="16" height="16" viewBox="0 0 16 16" fill="none" xmlns="http://www.w3.org/2000/svg">
<path d="M15.3194 3.79232C14.8412 2.96794 13.5794 2.78232 11.6631 3.25107C10.776 2.56509 9.7142 2.14168 8.59845 2.02892C7.48271 1.91617 6.3577 2.11859 5.35124 2.61319C4.34478 3.1078 3.4972 3.87476 2.9048 4.82695C2.31241 5.77914 1.99893 6.87839 1.99999 7.99982C2.00007 8.25705 2.01635 8.51401 2.04874 8.76919C0.318112 10.5623 0.343112 11.6248 0.681237 12.2073C0.999987 12.7598 1.66499 12.9998 2.53999 12.9998C3.1475 12.9873 3.75143 12.9033 4.33936 12.7498C5.22662 13.4351 6.28825 13.8579 7.40371 13.9703C8.51917 14.0826 9.64378 13.8799 10.6498 13.3852C11.6559 12.8905 12.5031 12.1237 13.0953 11.1718C13.6875 10.2198 14.0009 9.12092 14 7.99982C14.0001 7.74385 13.984 7.48813 13.9519 7.23419C14.7331 6.42169 15.2531 5.64982 15.43 4.98919C15.5519 4.53169 15.515 4.12919 15.3194 3.79232ZM7.99999 2.99982C9.13245 3.00098 10.2311 3.38603 11.1165 4.09209C12.0019 4.79815 12.6218 5.78352 12.875 6.88732C11.8087 7.89107 10.3656 8.92044 8.99561 9.70794C7.27374 10.6961 5.77999 11.3123 4.58874 11.6498C3.85503 10.9655 3.34434 10.0762 3.12315 9.09757C2.90196 8.11897 2.98051 7.09644 3.34859 6.16311C3.71666 5.22978 4.3572 4.42888 5.18682 3.86468C6.01644 3.30048 6.9967 2.99911 7.99999 2.99982ZM1.54624 11.7054C1.45499 11.5486 1.50561 11.2529 1.68499 10.8929C1.86237 10.5556 2.07818 10.24 2.32811 9.95232C2.57586 10.6701 2.95762 11.3344 3.45311 11.9098C2.37499 12.0911 1.70249 11.9754 1.54624 11.7054ZM7.99999 12.9998C7.15694 13.0007 6.32756 12.7869 5.58999 12.3786C6.94379 11.8998 8.25006 11.2959 9.49186 10.5748C10.8406 9.80044 12.0344 8.96107 12.9962 8.13232C12.9606 9.43429 12.4188 10.6711 11.4859 11.58C10.553 12.4888 9.30245 12.9982 7.99999 12.9998ZM14.4637 4.73044C14.3575 5.12482 14.0769 5.57607 13.6744 6.05107C13.4273 5.3324 13.0454 4.66741 12.5494 4.09169C13.4375 3.94482 14.26 3.95607 14.4556 4.29419C14.5119 4.39232 14.515 4.53919 14.4637 4.73044Z" fill="white"/>
</svg>
