<svg width="16" height="16" viewBox="0 0 16 16" fill="none" xmlns="http://www.w3.org/2000/svg">
<path d="M15 8.00013C15 8.13274 14.9473 8.25992 14.8536 8.35368C14.7598 8.44745 14.6326 8.50013 14.5 8.50013H12.8088L10.4475 13.2239C10.4059 13.307 10.342 13.3768 10.263 13.4256C10.184 13.4744 10.0929 13.5002 10 13.5001H9.975C9.87801 13.4953 9.78452 13.4624 9.70594 13.4054C9.62736 13.3483 9.5671 13.2696 9.5325 13.1789L5.95937 3.79763L3.955 8.20701C3.91529 8.29438 3.85127 8.36848 3.77059 8.42046C3.68991 8.47243 3.59597 8.50009 3.5 8.50013H1.5C1.36739 8.50013 1.24021 8.44745 1.14645 8.35368C1.05268 8.25992 1 8.13274 1 8.00013C1 7.86752 1.05268 7.74035 1.14645 7.64658C1.24021 7.55281 1.36739 7.50013 1.5 7.50013H3.17812L5.545 2.29326C5.5858 2.2034 5.65229 2.12763 5.73607 2.07549C5.81985 2.02335 5.91719 1.99717 6.01583 2.00024C6.11447 2.00332 6.20999 2.03551 6.29036 2.09277C6.37074 2.15003 6.43237 2.22979 6.4675 2.32201L10.0619 11.7595L12.0525 7.77763C12.0939 7.69433 12.1577 7.62422 12.2368 7.5752C12.3158 7.52618 12.407 7.50018 12.5 7.50013H14.5C14.6326 7.50013 14.7598 7.55281 14.8536 7.64658C14.9473 7.74035 15 7.86752 15 8.00013Z" fill="#BFDE42"/>
</svg>
